<svg width="465" height="147" viewBox="0 0 465 147" fill="none" xmlns="http://www.w3.org/2000/svg">
<path opacity="0.02" d="M57.8 0.399988C68.3333 0.399988 77.6 1.93332 85.6 4.99999C93.7333 8.06666 101 12.6667 107.4 18.8L90.8 38.4C81.2 30.8 71.1333 27 60.6 27C55.1333 27 50.9333 28.0667 48 30.2C45.2 32.2 43.8 35.0667 43.8 38.8C43.8 41.4667 44.5333 43.6667 46 45.4C47.4667 47.1333 49.9333 48.8 53.4 50.4C56.8667 52 62.3333 54 69.8 56.4C84.0667 60.9333 94.4667 66.6667 101 73.6C107.667 80.4 111 89.8667 111 102C111 110.8 108.733 118.6 104.2 125.4C99.6667 132.067 93.0667 137.267 84.4 141C75.8667 144.733 65.8 146.6 54.2 146.6C32.0667 146.6 14 139.867 7.07805e-08 126.4L18.2 106.2C29.2667 115.267 40.8 119.8 52.8 119.8C59.0667 119.8 63.9333 118.467 67.4 115.8C70.8667 113 72.6 109.333 72.6 104.8C72.6 101.6 71.9333 99 70.6 97C69.2667 94.8667 66.8667 93 63.4 91.4C60.0667 89.6667 55.1333 87.8 48.6 85.8C32.8667 80.8667 21.8 74.9333 15.4 68C9 61.0667 5.8 52.3333 5.8 41.8C5.8 33.5333 8 26.2667 12.4 20C16.9333 13.7333 23.1333 8.93332 31 5.59999C39 2.13332 47.9333 0.399988 57.8 0.399988ZM235.816 96.4C235.816 106 233.682 114.6 229.416 122.2C225.282 129.8 219.016 135.8 210.616 140.2C202.216 144.467 191.949 146.6 179.816 146.6C161.416 146.6 147.482 142.133 138.016 133.2C128.549 124.133 123.816 111.867 123.816 96.4V3.99999H160.816V95.2C160.816 103.6 162.282 109.8 165.216 113.8C168.282 117.667 173.149 119.6 179.816 119.6C186.482 119.6 191.282 117.6 194.216 113.6C197.149 109.6 198.616 103.467 198.616 95.2V3.99999H235.816V96.4ZM302.508 91.8H292.308V143H255.308V3.99999H303.508C323.108 3.99999 337.708 7.53333 347.308 14.6C357.041 21.6667 361.908 32.5333 361.908 47.2C361.908 56 359.841 63.3333 355.708 69.2C351.708 75.0667 345.241 80.3333 336.308 85L370.908 143H329.708L302.508 91.8ZM292.308 66.6H304.708C317.508 66.6 323.908 60.1333 323.908 47.2C323.908 41.2 322.108 36.8 318.508 34C315.041 31.2 309.774 29.8 302.708 29.8H292.308V66.6ZM379.331 143V3.99999H464.731L460.931 30.2H416.331V63.6H455.531V89.8H416.331V143H379.331Z" fill="white"/>
</svg>
