<svg width="295" height="350" viewBox="0 0 295 350" fill="none" xmlns="http://www.w3.org/2000/svg">
<g opacity="0.03">
<path fill-rule="evenodd" clip-rule="evenodd" d="M147.077 0C180.492 0 212.936 11.2746 238.517 31.7494V31.7486C271.932 58.4781 291.586 96.484 293.964 138.739C296.24 180.457 280.638 221.273 251.173 250.714L153.502 347.033C149.718 350.78 143.156 350.746 139.373 346.999L43.0813 250.783C13.5501 221.275 -2.08612 180.426 0.224142 138.74C2.56757 96.4865 22.2553 58.4807 55.6367 31.7494C81.1839 11.2746 113.662 0 147.077 0ZM81.4521 146.874C81.4521 183.04 110.882 212.448 147.077 212.448C183.27 212.448 212.735 183.041 212.701 146.874C212.701 110.709 183.271 81.3013 147.077 81.3013C110.883 81.3013 81.4521 110.708 81.4521 146.874Z" fill="white"/>
<path d="M147.077 114.913C129.432 114.913 115.101 129.232 115.101 146.863C115.101 164.495 129.432 178.814 147.077 178.814C164.722 178.814 179.052 164.495 179.052 146.863C179.052 129.232 164.722 114.913 147.077 114.913Z" fill="white"/>
</g>
</svg>
