<svg width="17" height="14" viewBox="0 0 17 14" fill="none" xmlns="http://www.w3.org/2000/svg">
<path d="M10.2791 13.1005L15.7726 7.64901C16.2758 7.14663 16.2758 6.33118 15.7726 5.83048L10.2791 0.375784C9.77169 -0.1266 8.95036 -0.124079 8.44293 0.375784C7.94055 0.879008 7.94055 1.69109 8.44293 2.19432L11.6567 5.3829L1.3473 5.3829C0.602562 5.3829 2.47955e-05 5.9846 2.47955e-05 6.72934C2.47955e-05 7.47324 0.602562 8.07578 1.3473 8.07578L11.6761 8.07578L8.44293 11.2812C7.94055 11.7836 7.94055 12.5965 8.44293 13.0989C8.94954 13.6021 9.77087 13.6029 10.2791 13.1005Z" fill="white"/>
</svg>
