<svg width="19" height="25" viewBox="0 0 19 25" fill="none" xmlns="http://www.w3.org/2000/svg">
<path d="M5.24797 15.7439C3.75967 15.7439 2.54877 14.5329 2.54877 13.0447C2.54877 12.7283 2.80658 12.4705 3.12297 12.4705C3.43937 12.4705 3.69717 12.7283 3.69717 13.0447C3.69717 13.9001 4.39442 14.5974 5.24992 14.5974C6.10542 14.5974 6.80267 13.9002 6.80267 13.0447C6.80267 12.7283 7.06048 12.4705 7.37687 12.4705C7.69327 12.4705 7.95107 12.7283 7.95107 13.0447C7.94716 14.533 6.73622 15.7439 5.24797 15.7439V15.7439Z" fill="#4AF6CD"/>
<path fill-rule="evenodd" clip-rule="evenodd" d="M3.12297 12.7205C2.94464 12.7205 2.79877 12.8663 2.79877 13.0447C2.79877 14.3948 3.89774 15.4939 5.24797 15.4939C6.59789 15.4939 7.69731 14.3951 7.70107 13.0444C7.70092 12.8662 7.55511 12.7205 7.37687 12.7205C7.19854 12.7205 7.05267 12.8663 7.05267 13.0447C7.05267 14.0382 6.24349 14.8474 5.24992 14.8474C4.25634 14.8474 3.44717 14.0382 3.44717 13.0447C3.44717 12.8663 3.3013 12.7205 3.12297 12.7205ZM2.29877 13.0447C2.29877 12.5902 2.66851 12.2205 3.12297 12.2205C3.57745 12.2205 3.94717 12.5902 3.94717 13.0447C3.94717 13.762 4.53249 14.3474 5.24992 14.3474C5.96735 14.3474 6.55267 13.7621 6.55267 13.0447C6.55267 12.5902 6.92241 12.2205 7.37687 12.2205C7.83135 12.2205 8.20107 12.5902 8.20107 13.0447L8.20107 13.0453C8.1968 14.671 6.87441 15.9939 5.24797 15.9939C3.62159 15.9939 2.29877 14.671 2.29877 13.0447Z" fill="#4AF6CD"/>
<path d="M9.49998 15.7439C8.01168 15.7439 6.80078 14.5329 6.80078 13.0447C6.80078 12.7283 7.0586 12.4705 7.37498 12.4705C7.69137 12.4705 7.94918 12.7283 7.94918 13.0447C7.94918 13.9001 8.64643 14.5974 9.50193 14.5974C10.3574 14.5974 11.0547 13.9002 11.0547 13.0447C11.0547 12.7283 11.3125 12.4705 11.6289 12.4705C11.9453 12.4705 12.2031 12.7283 12.2031 13.0447C12.1992 14.533 10.9882 15.7439 9.49998 15.7439V15.7439Z" fill="#4AF6CD"/>
<path fill-rule="evenodd" clip-rule="evenodd" d="M7.37498 12.7205C7.19666 12.7205 7.05078 12.8663 7.05078 13.0447C7.05078 14.3948 8.14976 15.4939 9.49998 15.4939C10.8499 15.4939 11.9493 14.3951 11.9531 13.0444C11.9529 12.8662 11.8071 12.7205 11.6289 12.7205C11.4506 12.7205 11.3047 12.8663 11.3047 13.0447C11.3047 14.0382 10.4954 14.8474 9.50193 14.8474C8.50835 14.8474 7.69918 14.0382 7.69918 13.0447C7.69918 12.8663 7.5533 12.7205 7.37498 12.7205ZM6.55078 13.0447C6.55078 12.5902 6.92053 12.2205 7.37498 12.2205C7.82944 12.2205 8.19918 12.5902 8.19918 13.0447C8.19918 13.762 8.78451 14.3474 9.50193 14.3474C10.2193 14.3474 10.8047 13.7621 10.8047 13.0447C10.8047 12.5902 11.1744 12.2205 11.6289 12.2205C12.0834 12.2205 12.4531 12.5902 12.4531 13.0447L12.4531 13.0453C12.4488 14.671 11.1264 15.9939 9.49998 15.9939C7.87361 15.9939 6.55078 14.671 6.55078 13.0447Z" fill="#4AF6CD"/>
<path d="M13.752 15.7439C12.2637 15.7439 11.0528 14.5329 11.0528 13.0447C11.0528 12.7283 11.3106 12.4705 11.627 12.4705C11.9434 12.4705 12.2012 12.7283 12.2012 13.0447C12.2012 13.9001 12.8984 14.5974 13.7539 14.5974C14.6094 14.5974 15.3067 13.9002 15.3067 13.0447C15.3067 12.7283 15.5645 12.4705 15.8809 12.4705C16.1973 12.4705 16.4551 12.7283 16.4551 13.0447C16.4512 14.533 15.2402 15.7439 13.752 15.7439V15.7439Z" fill="#4AF6CD"/>
<path fill-rule="evenodd" clip-rule="evenodd" d="M11.627 12.7205C11.4487 12.7205 11.3028 12.8663 11.3028 13.0447C11.3028 14.3948 12.4018 15.4939 13.752 15.4939C15.1019 15.4939 16.2013 14.3951 16.2051 13.0444C16.205 12.8662 16.0591 12.7205 15.8809 12.7205C15.7026 12.7205 15.5567 12.8663 15.5567 13.0447C15.5567 14.0382 14.7475 14.8474 13.7539 14.8474C12.7604 14.8474 11.9512 14.0382 11.9512 13.0447C11.9512 12.8663 11.8053 12.7205 11.627 12.7205ZM10.8028 13.0447C10.8028 12.5902 11.1725 12.2205 11.627 12.2205C12.0815 12.2205 12.4512 12.5902 12.4512 13.0447C12.4512 13.762 13.0365 14.3474 13.7539 14.3474C14.4713 14.3474 15.0567 13.7621 15.0567 13.0447C15.0567 12.5902 15.4264 12.2205 15.8809 12.2205C16.3354 12.2205 16.7051 12.5902 16.7051 13.0447L16.7051 13.0453C16.7008 14.671 15.3784 15.9939 13.752 15.9939C12.1256 15.9939 10.8028 14.671 10.8028 13.0447Z" fill="#4AF6CD"/>
<path fill-rule="evenodd" clip-rule="evenodd" d="M0.421997 15.0685C0.421997 20.0742 4.494 24.1465 9.5 24.1465L9.50025 24.1466C14.506 24.1466 18.5783 20.0746 18.5802 15.0686C18.5802 8.23659 10.2367 0.795042 9.88125 0.480587C9.67225 0.295042 9.35779 0.289182 9.141 0.464962C8.7835 0.751962 0.421997 7.59196 0.421997 15.0685ZM9.48411 1.67769C9.4842 1.67761 9.48429 1.67754 9.48437 1.67746H9.48387C9.48395 1.67754 9.48403 1.67761 9.48411 1.67769ZM9.48411 1.67769C7.86455 3.09799 1.56837 9.00179 1.56837 15.068C1.56837 19.441 5.12502 22.9975 9.49787 22.9975C13.8707 22.9975 17.4274 19.4408 17.4274 15.068C17.4293 9.52524 11.09 3.1916 9.48411 1.67769Z" fill="#4AF6CD"/>
</svg>
