<svg width="47" height="48" viewBox="0 0 47 48" fill="none" xmlns="http://www.w3.org/2000/svg">
<g filter="url(#filter0_d_0_2932)">
<path d="M42.037 32.1882H33.7502C33.4851 32.1882 33.2688 32.4062 33.2688 32.6735C33.2688 32.9409 33.4851 33.1589 33.7502 33.1589H42.037C42.3022 33.1589 42.5185 32.9409 42.5185 32.6735C42.5185 32.4062 42.3022 32.1882 42.037 32.1882Z" fill="white"/>
<path d="M42.037 38.3401H32.7459C32.4807 38.3401 32.2644 38.5581 32.2644 38.8254C32.2644 39.0927 32.4807 39.3107 32.7459 39.3107H42.037C42.3022 39.3107 42.5185 39.0927 42.5185 38.8254C42.5185 38.5581 42.3022 38.3401 42.037 38.3401Z" fill="white"/>
<path d="M4.48148 35.6917H11.9743C12.2395 35.6917 12.4558 35.4737 12.4558 35.2064C12.4558 34.9391 12.2395 34.7211 11.9743 34.7211H4.48148C4.21629 34.7211 4 34.9391 4 35.2064C4 35.4756 4.21629 35.6917 4.48148 35.6917Z" fill="white"/>
<path fill-rule="evenodd" clip-rule="evenodd" d="M7.74481 0.534702C7.93098 0.441813 8.15292 0.479726 8.29962 0.627597C8.44444 0.775443 8.48229 1.00127 8.38825 1.18895C8.08921 1.79181 7.93875 2.43446 7.93875 3.09988C7.93875 5.47715 9.86843 7.41274 12.2382 7.41274C12.9021 7.41274 13.5435 7.25918 14.1453 6.95965C14.3315 6.86676 14.5534 6.90467 14.7001 7.05255C14.8468 7.20039 14.8826 7.42599 14.7904 7.61178C13.8933 9.42603 12.0877 10.5521 10.079 10.5521C7.1768 10.5521 4.81644 8.18032 4.81644 5.26653C4.81644 3.24752 5.93925 1.43521 7.74481 0.534702ZM13.1276 8.30712C12.8342 8.3583 12.5389 8.38295 12.238 8.38295C9.33581 8.38295 6.97557 6.01327 6.97745 3.09948C6.97745 2.79616 7.0019 2.4985 7.05268 2.20466C6.24772 2.99897 5.7794 4.09093 5.7794 5.26632C5.7794 7.64549 7.70908 9.58107 10.0789 9.58107C11.2506 9.58107 12.3358 9.11284 13.1276 8.30712Z" fill="white"/>
<path fill-rule="evenodd" clip-rule="evenodd" d="M42.039 24.4101H42.0371C41.7719 24.4101 41.5575 24.6262 41.5556 24.8935L41.5443 27.485L23.677 0.923621C23.4983 0.656319 23.0601 0.656319 22.8796 0.923621L5.02529 27.466L5.03658 24.7153C5.03846 24.448 4.82217 24.2281 4.55698 24.2281H4.5551C4.28991 24.2281 4.0755 24.4442 4.07362 24.7115L4.05669 29.0528C4.05481 29.267 4.19399 29.4547 4.39523 29.5191C4.44225 29.5343 4.48927 29.54 4.53817 29.54C4.69428 29.54 4.84474 29.4623 4.9369 29.3277L7.74677 25.1513V29.0566C7.74677 29.3239 7.96306 29.5419 8.22826 29.5419H18.9523C19.4996 31.3315 21.1603 32.6358 23.1201 32.6358C23.1266 32.6358 23.1327 32.6353 23.1388 32.6348C23.1449 32.6344 23.1511 32.6339 23.1577 32.6339C23.1605 32.6339 23.1638 32.6343 23.1671 32.6348C23.1703 32.6353 23.1737 32.6358 23.1765 32.6358C23.1825 32.6358 23.1884 32.6352 23.1944 32.6344L23.2047 32.6329C23.2141 32.6315 23.2235 32.6301 23.2329 32.6301C25.1419 32.5808 26.75 31.2955 27.2861 29.5419H38.3303C38.5955 29.5419 38.8118 29.3239 38.8118 29.0566V25.1513L41.6216 29.3277C41.7401 29.504 41.9583 29.5817 42.1595 29.5191C42.3608 29.4566 42.5 29.2689 42.5 29.0566L42.5188 24.8973C42.5207 24.6281 42.306 24.412 42.039 24.4101ZM23.2328 31.6597L23.2274 31.6601C23.2031 31.6619 23.1803 31.6635 23.1575 31.6635C22.3225 31.6521 21.6454 30.9696 21.6454 30.1318C21.6454 29.5801 22.4504 28.3099 23.1764 27.3525C23.9023 28.3099 24.7073 29.58 24.7073 30.1318C24.7073 30.9564 24.0509 31.6294 23.2328 31.6597ZM25.6684 30.1298C25.6684 30.2739 25.6496 30.4104 25.627 30.5469C26.1781 29.9402 26.5166 29.1384 26.5129 28.2568C26.5129 26.8028 24.3236 23.7089 23.1161 22.1695C21.9106 23.7089 19.7194 26.8047 19.7194 28.2568C19.7194 29.2123 20.1163 30.0768 20.7501 30.6967C20.7087 30.5128 20.6805 30.3251 20.6805 30.1298C20.6805 28.9013 22.4503 26.6928 22.8039 26.2624C22.9864 26.0406 23.3625 26.0406 23.545 26.2624C23.9005 26.6928 25.6684 28.9014 25.6684 30.1298ZM23.4905 21.089C23.308 20.8672 22.9319 20.8672 22.7494 21.089C22.3413 21.5838 18.7602 25.997 18.7602 28.2572C18.7602 28.3333 18.7651 28.4084 18.7699 28.4833C18.7718 28.5128 18.7737 28.5423 18.7753 28.5719H13.9268V25.3718C14.555 24.8599 16.637 23.0855 18.7454 20.4521C20.457 18.3156 22.4111 15.2957 23.2969 11.8528C24.1828 15.2974 26.1369 18.3153 27.8484 20.4521C29.9568 23.0854 32.0388 24.8598 32.6671 25.3718V28.5719H27.4628C27.4703 28.4676 27.4778 28.3633 27.4778 28.2572C27.4797 25.9974 23.8986 21.5841 23.4905 21.089ZM33.6278 28.5716H37.8482L37.8507 23.7204L23.2801 2.06121L8.70954 23.7204V28.5716H12.962V25.1365C12.962 24.9849 13.0316 24.8427 13.1501 24.7517C13.2662 24.6599 22.8134 17.1172 22.8134 8.19028C22.8134 7.92298 23.0297 7.70496 23.2949 7.70496C23.5601 7.70496 23.7764 7.92298 23.7764 8.19028C23.7764 17.1141 33.3165 24.6543 33.4392 24.7513C33.5577 24.8442 33.6278 24.9868 33.6278 25.1365V28.5716Z" fill="white"/>
<path fill-rule="evenodd" clip-rule="evenodd" d="M30.596 34.433C30.6393 34.5543 30.6299 34.6908 30.5735 34.8064C30.5152 34.924 30.4158 35.0131 30.2917 35.0548L28.5106 35.6482L30.2221 36.1354C30.3462 36.1714 30.4515 36.2548 30.5136 36.3686C30.5757 36.4823 30.5888 36.615 30.5531 36.7401L29.9381 38.8293C29.8761 39.0397 29.6861 39.1762 29.4773 39.1762C29.4341 39.1762 29.3889 39.1686 29.3457 39.1572L23.2179 37.4112L17.5941 39.2861C17.5452 39.3032 17.4945 39.3108 17.4437 39.3108C17.2443 39.3108 17.0581 39.1857 16.9923 38.9847L16.2832 36.924C16.24 36.8027 16.2494 36.6662 16.3058 36.5506C16.3622 36.433 16.4638 36.3458 16.586 36.3041L18.0718 35.8093L16.287 35.3012C16.1628 35.2652 16.0575 35.1818 15.9955 35.0681C15.9334 34.9543 15.9202 34.8216 15.956 34.6965L16.571 32.6074C16.6462 32.3514 16.9095 32.2055 17.1634 32.2775L23.3644 34.0443L29.2813 32.0708C29.5315 31.9874 29.8004 32.122 29.8869 32.3723L30.596 34.433ZM17.3592 33.341L17.0169 34.4993L19.7026 35.2652L21.7339 34.5884L17.3592 33.341ZM29.4901 36.9354L29.1478 38.0937L24.8483 36.8671L26.8796 36.1904L29.4901 36.9354ZM17.3499 37.0718L17.7429 38.215L29.5262 34.287L29.1331 33.1438L17.3499 37.0718Z" fill="white"/>
</g>
<defs>
<filter id="filter0_d_0_2932" x="0" y="0.484253" width="46.5188" height="46.8265" filterUnits="userSpaceOnUse" color-interpolation-filters="sRGB">
<feFlood flood-opacity="0" result="BackgroundImageFix"/>
<feColorMatrix in="SourceAlpha" type="matrix" values="0 0 0 0 0 0 0 0 0 0 0 0 0 0 0 0 0 0 127 0" result="hardAlpha"/>
<feOffset dy="4"/>
<feGaussianBlur stdDeviation="2"/>
<feColorMatrix type="matrix" values="0 0 0 0 0 0 0 0 0 0 0 0 0 0 0 0 0 0 0.25 0"/>
<feBlend mode="normal" in2="BackgroundImageFix" result="effect1_dropShadow_0_2932"/>
<feBlend mode="normal" in="SourceGraphic" in2="effect1_dropShadow_0_2932" result="shape"/>
</filter>
</defs>
</svg>
