<svg width="17" height="44" viewBox="0 0 17 44" fill="none" xmlns="http://www.w3.org/2000/svg">
<path fill-rule="evenodd" clip-rule="evenodd" d="M1 20.5832C1 7.50243 6.42166 0.445137 8.63885 0.44458C10.8563 0.445137 16.2777 7.50198 16.2777 20.5832C16.2777 33.8001 11.5346 42.7602 11.3333 43.1352L11.1371 43.4998H6.14063L5.94444 43.1352C5.74311 42.7601 1 33.8001 1 20.5832ZM7.94467 2.28839V2.28831L7.9448 2.28827L7.94467 2.28839ZM7.94467 2.28839V24.0559H9.33356V2.28831C11.1113 3.87511 14.8891 9.64787 14.8891 20.5834C14.8891 24.2327 14.5054 27.5625 13.9585 30.4705C13.1547 29.3264 11.6773 27.7692 8.98476 26.2309C2.43809 22.4896 2.51764 17.3523 2.52298 17.1354H2.52124C3.20353 8.41873 6.3648 3.70008 7.94467 2.28839ZM2.5248 24.2244C2.46577 23.4015 2.43105 22.5578 2.41195 21.6984C3.40505 23.5438 5.16716 25.6496 8.29533 27.4376C12.7407 29.9786 13.5018 32.492 13.5209 32.5553L13.5211 32.5559C13.1808 34.042 12.8076 35.3909 12.4343 36.5784C11.8492 35.542 10.818 34.2677 8.9968 33.1826C3.51236 29.917 2.64613 25.1791 2.5248 24.2244ZM9.33347 42.1114H10.2936L10.2934 42.1111C10.5694 41.5416 11.1284 40.3229 11.7639 38.5694C11.6284 37.9913 10.9792 35.9792 8.28471 34.375C5.83516 32.9151 4.22404 31.1772 3.15982 29.5488C4.29698 36.2105 6.35951 40.8232 6.98449 42.1114H7.94458V37.2501H9.33347V42.1114Z" fill="white"/>
<path d="M8.63885 0.44458L8.63888 0.31958L8.63882 0.31958L8.63885 0.44458ZM11.3333 43.1352L11.4433 43.1945L11.4434 43.1944L11.3333 43.1352ZM11.1371 43.4998V43.6248H11.2118L11.2471 43.5591L11.1371 43.4998ZM6.14063 43.4998L6.03055 43.5591L6.06594 43.6248H6.14063V43.4998ZM5.94444 43.1352L5.83431 43.1944L5.83437 43.1945L5.94444 43.1352ZM7.94467 2.28831L7.90439 2.16998L7.81967 2.19881V2.28831H7.94467ZM7.9448 2.28827L8.02807 2.38149L7.90452 2.16993L7.9448 2.28827ZM7.94467 24.0559H7.81967V24.1809H7.94467V24.0559ZM9.33356 24.0559V24.1809H9.45856V24.0559H9.33356ZM9.33356 2.28831L9.41679 2.19506L9.20856 2.00919V2.28831H9.33356ZM13.9585 30.4705L13.8563 30.5424L14.0266 30.7849L14.0814 30.4936L13.9585 30.4705ZM8.98476 26.2309L8.92273 26.3395L8.92275 26.3395L8.98476 26.2309ZM2.52298 17.1354L2.64794 17.1385L2.65109 17.0104H2.52298V17.1354ZM2.52124 17.1354L2.39662 17.1256L2.38608 17.2604H2.52124V17.1354ZM2.41195 21.6984L2.52203 21.6392L2.28698 21.7012L2.41195 21.6984ZM2.5248 24.2244L2.39993 24.2334L2.4008 24.2402L2.5248 24.2244ZM8.29533 27.4376L8.2333 27.5462H8.2333L8.29533 27.4376ZM13.5209 32.5553L13.4013 32.5915L13.4013 32.5916L13.5209 32.5553ZM13.5211 32.5559L13.643 32.5838L13.6504 32.5513L13.6407 32.5195L13.5211 32.5559ZM12.4343 36.5784L12.3255 36.6399L12.4671 36.8909L12.5536 36.6159L12.4343 36.5784ZM8.9968 33.1826L9.06078 33.0752L9.06075 33.0752L8.9968 33.1826ZM10.2936 42.1114V42.2364H10.5094L10.402 42.0492L10.2936 42.1114ZM9.33347 42.1114H9.20847V42.2364H9.33347V42.1114ZM10.2934 42.1111L10.1809 42.0566L10.1521 42.116L10.185 42.1733L10.2934 42.1111ZM11.7639 38.5694L11.8814 38.612L11.894 38.5771L11.8856 38.5409L11.7639 38.5694ZM8.28471 34.375L8.22072 34.4824L8.22077 34.4824L8.28471 34.375ZM3.15982 29.5488L3.26446 29.4804L3.0366 29.5698L3.15982 29.5488ZM6.98449 42.1114L6.87203 42.166L6.9062 42.2364H6.98449V42.1114ZM7.94458 42.1114V42.2364H8.06958V42.1114H7.94458ZM7.94458 37.2501V37.1251H7.81958V37.2501H7.94458ZM9.33347 37.2501H9.45847V37.1251H9.33347V37.2501ZM8.63882 0.31958C8.33024 0.319658 7.98025 0.441678 7.60923 0.666672C7.23676 0.892539 6.83456 1.22731 6.41914 1.66605C5.58816 2.54364 4.69578 3.8462 3.8753 5.5547C2.23389 8.97261 0.875 14.0259 0.875 20.5832H1.125C1.125 14.0598 2.47694 9.04401 4.10066 5.66293C4.91274 3.97194 5.79149 2.69251 6.60067 1.83794C7.00532 1.41058 7.39044 1.09172 7.73886 0.880438C8.08871 0.668284 8.39316 0.569642 8.63888 0.56958L8.63882 0.31958ZM16.4027 20.5832C16.4027 14.0256 15.0439 8.97238 13.4025 5.55454C12.582 3.84606 11.6897 2.54355 10.8587 1.66598C10.4433 1.22726 10.041 0.892507 9.66856 0.666651C9.2975 0.441667 8.94749 0.319658 8.63888 0.31958L8.63882 0.56958C8.88458 0.569642 9.18906 0.668281 9.53894 0.880423C9.88737 1.09169 10.2725 1.41054 10.6772 1.83788C11.4863 2.69242 12.3651 3.9718 13.1772 5.66276C14.8008 9.04379 16.1527 14.0596 16.1527 20.5832H16.4027ZM11.4434 43.1944C11.6499 42.8099 16.4027 33.8288 16.4027 20.5832H16.1527C16.1527 33.7715 11.4194 42.7106 11.2231 43.0761L11.4434 43.1944ZM11.2471 43.5591L11.4433 43.1945L11.2232 43.076L11.027 43.4406L11.2471 43.5591ZM6.14063 43.6248H11.1371V43.3748H6.14063V43.6248ZM5.83437 43.1945L6.03055 43.5591L6.2507 43.4406L6.05452 43.076L5.83437 43.1945ZM0.875 20.5832C0.875 33.8288 5.62787 42.8097 5.83431 43.1944L6.05458 43.0761C5.85835 42.7105 1.125 33.7715 1.125 20.5832H0.875ZM7.81967 2.28831V2.28839H8.06967V2.28831H7.81967ZM7.90452 2.16993L7.90439 2.16998L7.98494 2.40665L7.98507 2.4066L7.90452 2.16993ZM8.02794 2.38161L8.02807 2.38149L7.86152 2.19504L7.86139 2.19516L8.02794 2.38161ZM8.06967 24.0559V2.28839H7.81967V24.0559H8.06967ZM9.33356 23.9309H7.94467V24.1809H9.33356V23.9309ZM9.20856 2.28831V24.0559H9.45856V2.28831H9.20856ZM15.0141 20.5834C15.0141 9.62212 11.2277 3.81143 9.41679 2.19506L9.25032 2.38157C10.995 3.93879 14.7641 9.67362 14.7641 20.5834H15.0141ZM14.0814 30.4936C14.6295 27.5791 15.0141 24.2415 15.0141 20.5834H14.7641C14.7641 24.224 14.3813 27.546 13.8357 30.4474L14.0814 30.4936ZM8.92275 26.3395C11.6003 27.8692 13.0636 29.4143 13.8563 30.5424L14.0608 30.3987C13.2458 29.2386 11.7542 27.6692 9.04676 26.1224L8.92275 26.3395ZM2.39802 17.1323C2.39202 17.3759 2.32188 22.5672 8.92273 26.3395L9.04678 26.1224C2.5543 22.412 2.64326 17.3286 2.64794 17.1385L2.39802 17.1323ZM2.52124 17.2604H2.52298V17.0104H2.52124V17.2604ZM7.86138 2.19518C6.25165 3.63356 3.08074 8.38565 2.39662 17.1256L2.64586 17.1451C3.32633 8.45181 6.47795 3.76661 8.02795 2.3816L7.86138 2.19518ZM2.28698 21.7012C2.30611 22.562 2.34091 23.4079 2.40012 24.2333L2.64948 24.2155C2.59064 23.3951 2.55599 22.5535 2.53692 21.6956L2.28698 21.7012ZM8.35736 27.3291C5.24952 25.5527 3.50405 23.464 2.52203 21.6392L2.30188 21.7577C3.30606 23.6236 5.08481 25.7465 8.2333 27.5462L8.35736 27.3291ZM13.6406 32.519C13.6125 32.4265 12.8316 29.8866 8.35736 27.3291L8.2333 27.5462C12.6498 30.0706 13.391 32.5575 13.4013 32.5915L13.6406 32.519ZM13.6407 32.5195L13.6405 32.5189L13.4013 32.5916L13.4015 32.5922L13.6407 32.5195ZM12.5536 36.6159C12.9278 35.4254 13.3019 34.0732 13.643 32.5838L13.3993 32.528C13.0597 34.0108 12.6873 35.3565 12.3151 36.541L12.5536 36.6159ZM8.93282 33.29C10.7338 34.363 11.7502 35.6208 12.3255 36.6399L12.5432 36.517C11.9483 35.4632 10.9022 34.1723 9.06078 33.0752L8.93282 33.29ZM2.4008 24.2402C2.52473 25.2153 3.40259 29.9971 8.93285 33.29L9.06075 33.0752C3.62212 29.8369 2.76753 25.1428 2.6488 24.2086L2.4008 24.2402ZM10.2936 41.9864H9.33347V42.2364H10.2936V41.9864ZM10.185 42.1733L10.1851 42.1737L10.402 42.0492L10.4018 42.0489L10.185 42.1733ZM11.6463 38.5268C11.0126 40.2757 10.4553 41.4905 10.1809 42.0566L10.4059 42.1656C10.6835 41.5928 11.2443 40.3701 11.8814 38.612L11.6463 38.5268ZM8.22077 34.4824C10.8794 36.0653 11.5125 38.0445 11.6422 38.5979L11.8856 38.5409C11.7444 37.9381 11.0789 35.8931 8.34866 34.2676L8.22077 34.4824ZM3.05518 29.6171C4.12907 31.2604 5.7537 33.012 8.22072 34.4824L8.34871 34.2676C5.91661 32.8181 4.31902 31.0941 3.26446 29.4804L3.05518 29.6171ZM7.09695 42.0569C6.47556 40.7761 4.41769 36.1748 3.28304 29.5277L3.0366 29.5698C4.17627 36.2463 6.24346 40.8704 6.87203 42.166L7.09695 42.0569ZM7.94458 41.9864H6.98449V42.2364H7.94458V41.9864ZM7.81958 37.2501V42.1114H8.06958V37.2501H7.81958ZM9.33347 37.1251H7.94458V37.3751H9.33347V37.1251ZM9.45847 42.1114V37.2501H9.20847V42.1114H9.45847Z" fill="black"/>
</svg>
