<svg width="994" height="524" viewBox="0 0 994 524" fill="none" xmlns="http://www.w3.org/2000/svg">
<g opacity="0.29827">
<path d="M438.185 -328.858V-719.19L27.8033 -742C24.6342 -734.456 4.32905 -712.714 7.4975 -700.596C11.3121 -686.102 30.5015 -690.735 36.0767 -681.409C42.5908 -670.42 31.3819 -625.749 28.0367 -612.86C21.64 -588.445 7.02787 -568.665 2.80176 -544.25C-4.29925 -503.263 10.0787 -506.53 37.3092 -480.927C83.2015 -437.742 46.4055 -392.952 57.9666 -342.223C67.3563 -300.878 108.378 -279.554 123.401 -238.211C135.021 -206.37 150.983 -198.233 175.749 -174.947C175.162 -189.084 162.663 -230.785 186.137 -227.102C209.435 -223.478 200.456 -188.669 204.916 -174.115C208.672 -161.997 235.256 -137.761 213.191 -126.593C205.855 -122.91 184.963 -137.582 176.571 -141.503C182.498 -122.791 178.742 -103.367 188.132 -85.4867C199.341 -64.162 211.43 -72.3588 226.278 -60.7754C241.595 -48.8355 239.952 -35.1137 233.144 -17.0554C226.043 1.77534 218.708 -1.13523 229.975 21.5566C238.133 37.9512 251.982 58.7421 263.895 71.2164C270.82 78.4634 278.332 80.1267 285.257 89.3932C291.008 97.1155 288.779 107.214 295.645 114.164C307.382 126.104 327.277 126.282 336.549 141.904C346.878 159.309 335.141 172.437 365.54 170.833C367.125 205.643 373.639 237.185 373.286 271.994C390.247 278.825 417.652 270.687 435.434 267.063C453.099 291.18 475.927 274.429 496.116 287.558C504.919 293.26 503.099 307.517 508.44 312.506C519.414 322.723 527.512 316.308 541.128 319.872C551.222 322.486 559.027 329.97 568.651 332.703C577.747 335.257 592.712 329.258 599.461 337.396C607.56 347.138 594.003 364.958 606.21 372.799C616.362 379.333 630.916 363.77 640.776 366.027C652.278 368.7 685.259 399.174 693.358 409.212C702.572 420.677 711.845 442.062 717.067 456.793C725.224 479.841 724.109 491.127 740.951 507.998C751.691 518.75 741.479 519.522 758.967 522.67C770.411 524.749 785.551 516.374 797.114 515.067C821.175 512.394 845.471 517.027 869.18 512.453C891.246 508.176 912.314 501.166 934.966 497.899C954.567 495.048 989.075 497.246 1006.45 487.801C1025.28 477.643 1026.99 454.654 999.755 458.932C997.584 444.26 1007.27 424.003 996.469 413.847C1011.49 393.056 1016.95 378.384 1019.3 352.959C1020.35 341.792 1020.82 329.436 1026.28 320.05C1031.62 310.783 1046.64 305.259 1049.58 297.299C1054.1 284.943 1046.88 279.419 1041.36 272.528C1037.84 268.073 1027.81 270.212 1024.93 266.291C1019.59 259.103 1024.87 251.678 1021.94 244.431C1013.37 223.462 1003.16 215.205 996.702 191.444C996.878 195.424 997.054 199.463 996.819 203.384" stroke="white" stroke-width="2" stroke-linecap="round" stroke-linejoin="round"/>
</g>
</svg>
