<svg width="965" height="518" viewBox="0 0 965 518" fill="none" xmlns="http://www.w3.org/2000/svg">
<g opacity="0.29827">
<path d="M1008.08 185.448L443.182 -334.858V-725.19L28.1096 -748C24.9043 -740.456 4.36709 -718.714 7.57176 -706.596C11.43 -692.102 30.8387 -696.735 36.4776 -687.409C43.0661 -676.42 31.7291 -631.749 28.3457 -618.86C21.8759 -594.445 7.09676 -574.665 2.82235 -550.25C-4.35982 -509.263 10.1824 -512.53 37.7242 -486.927C84.141 -443.742 46.9244 -398.952 58.6176 -348.223C68.1146 -306.878 109.605 -285.554 124.8 -244.211C136.553 -212.37 152.697 -204.233 177.746 -180.947C177.153 -195.084 164.51 -236.785 188.253 -233.102C211.817 -229.478 202.736 -194.669 207.247 -180.115C211.045 -167.997 237.933 -143.761 215.616 -132.593C208.196 -128.91 187.066 -143.582 178.577 -147.503C184.572 -128.791 180.774 -109.367 190.271 -91.4867C201.608 -70.162 213.835 -78.3588 228.853 -66.7754C244.344 -54.8355 242.683 -41.1137 235.797 -23.0554C228.615 -4.22466 221.196 -7.13523 232.592 15.5566C240.843 31.9512 254.85 52.7421 266.9 65.2164C273.904 72.4634 281.502 74.1267 288.506 83.3932C294.323 91.1155 292.067 101.214 299.012 108.164C310.883 120.104 331.006 120.282 340.384 135.904C350.831 153.309 338.96 166.437 369.706 164.833C371.309 199.643 377.897 231.185 377.541 265.994C394.695 272.825 422.414 264.687 440.399 261.063C458.266 285.18 481.355 268.429 501.774 281.558C510.678 287.26 508.837 301.517 514.239 306.506C525.339 316.723 533.529 310.308 547.301 313.872C557.51 316.486 565.404 323.97 575.138 326.703C584.338 329.257 599.475 323.258 606.301 331.396C614.492 341.138 600.78 358.958 613.127 366.799C623.395 373.333 638.115 357.77 648.088 360.027C659.721 362.7 693.079 393.174 701.271 403.212C710.59 414.677 719.969 436.062 725.25 450.793C733.501 473.841 732.373 485.127 749.408 501.998C760.27 512.75 749.942 513.522 767.63 516.67C779.204 518.749 794.518 510.374 806.212 509.067C830.549 506.394 855.122 511.027 879.102 506.453C901.421 502.176 922.729 495.166 945.64 491.899C965.465 489.048 1000.37 491.246 1017.94 481.801C1036.99 471.643 1038.71 448.654 1011.17 452.932C1008.97 438.26 1018.77 418.003 1007.85 407.847C1023.04 387.056 1028.56 372.384 1030.93 346.959C1032 335.792 1032.48 323.436 1038 314.05C1043.4 304.783 1058.59 299.259 1061.56 291.299C1066.13 278.943 1058.83 273.419 1053.25 266.528C1049.69 262.073 1039.54 264.212 1036.63 260.291C1031.23 253.103 1036.57 245.678 1033.6 238.431C1024.94 217.462 1014.61 209.205 1008.08 185.444C1008.26 189.424 1008.44 193.463 1008.2 197.384" stroke="white" stroke-width="2" stroke-linecap="round" stroke-linejoin="round"/>
</g>
</svg>
