<svg width="172" height="64" viewBox="0 0 172 64" fill="none" xmlns="http://www.w3.org/2000/svg">
<rect x="61" width="111" height="64" fill="#4AF6CD"/>
<path d="M88.408 21.184C90.0933 21.184 91.576 21.4293 92.856 21.92C94.1573 22.4107 95.32 23.1467 96.344 24.128L93.688 27.264C92.152 26.048 90.5413 25.44 88.856 25.44C87.9813 25.44 87.3093 25.6107 86.84 25.952C86.392 26.272 86.168 26.7307 86.168 27.328C86.168 27.7547 86.2853 28.1067 86.52 28.384C86.7547 28.6613 87.1493 28.928 87.704 29.184C88.2587 29.44 89.1333 29.76 90.328 30.144C92.6107 30.8693 94.2747 31.7867 95.32 32.896C96.3867 33.984 96.92 35.4987 96.92 37.44C96.92 38.848 96.5573 40.096 95.832 41.184C95.1067 42.2507 94.0507 43.0827 92.664 43.68C91.2987 44.2773 89.688 44.576 87.832 44.576C84.2907 44.576 81.4 43.4987 79.16 41.344L82.072 38.112C83.8427 39.5627 85.688 40.288 87.608 40.288C88.6107 40.288 89.3893 40.0747 89.944 39.648C90.4987 39.2 90.776 38.6133 90.776 37.888C90.776 37.376 90.6693 36.96 90.456 36.64C90.2427 36.2987 89.8587 36 89.304 35.744C88.7707 35.4667 87.9813 35.168 86.936 34.848C84.4187 34.0587 82.648 33.1093 81.624 32C80.6 30.8907 80.088 29.4933 80.088 27.808C80.088 26.4853 80.44 25.3227 81.144 24.32C81.8693 23.3173 82.8613 22.5493 84.12 22.016C85.4 21.4613 86.8293 21.184 88.408 21.184ZM116.891 36.544C116.891 38.08 116.549 39.456 115.867 40.672C115.205 41.888 114.203 42.848 112.859 43.552C111.515 44.2347 109.872 44.576 107.931 44.576C104.987 44.576 102.757 43.8613 101.243 42.432C99.7278 40.9813 98.9705 39.0187 98.9705 36.544V21.76H104.891V36.352C104.891 37.696 105.125 38.688 105.595 39.328C106.085 39.9467 106.864 40.256 107.931 40.256C108.997 40.256 109.765 39.936 110.235 39.296C110.704 38.656 110.939 37.6747 110.939 36.352V21.76H116.891V36.544ZM127.561 35.808H125.929V44H120.009V21.76H127.721C130.857 21.76 133.193 22.3253 134.729 23.456C136.287 24.5867 137.065 26.3253 137.065 28.672C137.065 30.08 136.735 31.2533 136.073 32.192C135.433 33.1307 134.399 33.9733 132.969 34.72L138.505 44H131.913L127.561 35.808ZM125.929 31.776H127.913C129.961 31.776 130.985 30.7413 130.985 28.672C130.985 27.712 130.697 27.008 130.121 26.56C129.567 26.112 128.724 25.888 127.593 25.888H125.929V31.776ZM139.853 44V21.76H153.517L152.909 25.952H145.773V31.296H152.045V35.488H145.773V44H139.853Z" fill="white"/>
<path d="M11.776 21.184C14.7413 21.184 17.2907 22.1227 19.424 24L16.512 27.04C15.7013 26.464 14.9653 26.048 14.304 25.792C13.664 25.5147 12.928 25.376 12.096 25.376C10.496 25.376 9.23733 25.9947 8.32 27.232C7.424 28.4693 6.976 30.3573 6.976 32.896C6.976 34.752 7.12533 36.224 7.424 37.312C7.72267 38.3787 8.17067 39.1467 8.768 39.616C9.38667 40.0853 10.176 40.32 11.136 40.32C12.096 40.32 12.9707 40.1173 13.76 39.712L13.76 35.136H11.232L10.656 31.072H19.488L19.488 42.144C18.336 42.912 17.0347 43.5093 15.584 43.936C14.1333 44.3627 12.704 44.576 11.296 44.576C4.34133 44.576 0.864 40.672 0.864 32.864C0.864 30.432 1.33333 28.3413 2.272 26.592C3.232 24.8213 4.53333 23.4773 6.176 22.56C7.81867 21.6427 9.68533 21.184 11.776 21.184ZM31.8213 21.184C35.0426 21.184 37.5493 22.208 39.3413 24.256C41.1333 26.304 42.0293 29.1733 42.0293 32.864C42.0293 35.2747 41.6239 37.3653 40.8133 39.136C40.0239 40.8853 38.8613 42.2293 37.3253 43.168C35.7893 44.1067 33.9546 44.576 31.8213 44.576C28.5999 44.576 26.0933 43.552 24.3013 41.504C22.5306 39.456 21.6453 36.576 21.6453 32.864C21.6453 30.4533 22.0399 28.3733 22.8293 26.624C23.6399 24.8747 24.8026 23.5307 26.3173 22.592C27.8533 21.6533 29.6879 21.184 31.8213 21.184ZM31.8213 25.44C30.4346 25.44 29.4106 26.016 28.7493 27.168C28.1093 28.32 27.7893 30.2187 27.7893 32.864C27.7893 35.5093 28.1199 37.4187 28.7812 38.592C29.4426 39.744 30.4559 40.32 31.8213 40.32C33.2293 40.32 34.2533 39.744 34.8933 38.592C35.5333 37.44 35.8533 35.5307 35.8533 32.864C35.8533 30.2187 35.5333 28.32 34.8933 27.168C34.2533 26.016 33.2293 25.44 31.8213 25.44Z" fill="white"/>
<rect x="51" y="32" width="20" height="1" fill="white"/>
</svg>
