<svg width="161" height="280" viewBox="0 0 161 280" fill="none" xmlns="http://www.w3.org/2000/svg">
<path fill-rule="evenodd" clip-rule="evenodd" d="M-7 -10H161V181H-7V-10Z" fill="#4AF6CD"/>
<path d="M53.22 145.36C53.22 142.2 53.68 139.42 54.6 137.02C55.52 134.58 56.9 132.4 58.74 130.48L64.62 135.46C62.34 138.34 61.2 141.36 61.2 144.52C61.2 146.16 61.52 147.42 62.16 148.3C62.76 149.14 63.62 149.56 64.74 149.56C65.54 149.56 66.2 149.34 66.72 148.9C67.24 148.46 67.74 147.72 68.22 146.68C68.7 145.64 69.3 144 70.02 141.76C71.38 137.48 73.1 134.36 75.18 132.4C77.22 130.4 80.06 129.4 83.7 129.4C86.34 129.4 88.68 130.08 90.72 131.44C92.72 132.8 94.28 134.78 95.4 137.38C96.52 139.94 97.08 142.96 97.08 146.44C97.08 153.08 95.06 158.5 91.02 162.7L84.96 157.24C87.68 153.92 89.04 150.46 89.04 146.86C89.04 144.98 88.64 143.52 87.84 142.48C87 141.44 85.9 140.92 84.54 140.92C83.58 140.92 82.8 141.12 82.2 141.52C81.56 141.92 81 142.64 80.52 143.68C80 144.68 79.44 146.16 78.84 148.12C77.36 152.84 75.58 156.16 73.5 158.08C71.42 160 68.8 160.96 65.64 160.96C63.16 160.96 60.98 160.3 59.1 158.98C57.22 157.62 55.78 155.76 54.78 153.4C53.74 151 53.22 148.32 53.22 145.36ZM82.02 91.9553C84.9 91.9553 87.48 92.5953 89.76 93.8753C92.04 95.1153 93.84 96.9953 95.16 99.5153C96.44 102.035 97.08 105.115 97.08 108.755C97.08 114.275 95.74 118.455 93.06 121.295C90.34 124.135 86.66 125.555 82.02 125.555H54.3V114.455H81.66C84.18 114.455 86.04 114.015 87.24 113.135C88.4 112.215 88.98 110.755 88.98 108.755C88.98 106.755 88.38 105.315 87.18 104.435C85.98 103.555 84.14 103.115 81.66 103.115H54.3V91.9553H82.02ZM80.64 71.9477V75.0077H96V86.1077H54.3V71.6477C54.3 65.7677 55.36 61.3877 57.48 58.5077C59.6 55.5877 62.86 54.1277 67.26 54.1277C69.9 54.1277 72.1 54.7477 73.86 55.9877C75.62 57.1877 77.2 59.1277 78.6 61.8077L96 51.4277V63.7877L80.64 71.9477ZM73.08 75.0077V71.2877C73.08 67.4477 71.14 65.5277 67.26 65.5277C65.46 65.5277 64.14 66.0677 63.3 67.1477C62.46 68.1877 62.04 69.7677 62.04 71.8877V75.0077H73.08ZM96 48.9006H54.3V23.2806L62.16 24.4206V37.8006H72.18V26.0406H80.04V37.8006H96V48.9006Z" fill="white"/>
<path d="M53.22 257.92C53.22 252.36 54.98 247.58 58.5 243.58L64.2 249.04C63.12 250.56 62.34 251.94 61.86 253.18C61.34 254.38 61.08 255.76 61.08 257.32C61.08 260.32 62.24 262.68 64.56 264.4C66.88 266.08 70.42 266.92 75.18 266.92C78.66 266.92 81.42 266.64 83.46 266.08C85.46 265.52 86.9 264.68 87.78 263.56C88.66 262.4 89.1 260.92 89.1 259.12C89.1 257.32 88.72 255.68 87.96 254.2H79.38V258.94L71.76 260.02V243.46H92.52C93.96 245.62 95.08 248.06 95.88 250.78C96.68 253.5 97.08 256.18 97.08 258.82C97.08 271.86 89.76 278.38 75.12 278.38C70.56 278.38 66.64 277.5 63.36 275.74C60.04 273.94 57.52 271.5 55.8 268.42C54.08 265.34 53.22 261.84 53.22 257.92ZM53.22 220.335C53.22 214.295 55.14 209.595 58.98 206.235C62.82 202.875 68.2 201.195 75.12 201.195C79.64 201.195 83.56 201.955 86.88 203.475C90.16 204.955 92.68 207.135 94.44 210.015C96.2 212.895 97.08 216.335 97.08 220.335C97.08 226.375 95.16 231.075 91.32 234.435C87.48 237.755 82.08 239.415 75.12 239.415C70.6 239.415 66.7 238.675 63.42 237.195C60.14 235.675 57.62 233.495 55.86 230.655C54.1 227.775 53.22 224.335 53.22 220.335ZM61.2 220.335C61.2 222.935 62.28 224.855 64.44 226.095C66.6 227.295 70.16 227.895 75.12 227.895C80.08 227.895 83.66 227.275 85.86 226.035C88.02 224.795 89.1 222.895 89.1 220.335C89.1 217.695 88.02 215.775 85.86 214.575C83.7 213.375 80.12 212.775 75.12 212.775C70.16 212.775 66.6 213.375 64.44 214.575C62.28 215.775 61.2 217.695 61.2 220.335Z" fill="white"/>
<rect x="76" y="191" width="20" height="1" transform="rotate(-90 76 191)" fill="white"/>
</svg>
