<svg width="14" height="17" viewBox="0 0 14 17" fill="none" xmlns="http://www.w3.org/2000/svg">
<g opacity="0.299219">
<path fill-rule="evenodd" clip-rule="evenodd" d="M6.9156 0.147705C8.475 0.147705 9.98904 0.687553 11.1828 1.66793V1.66789C12.7422 2.94775 13.6594 4.76754 13.7703 6.79079C13.8766 8.78831 13.1484 10.7427 11.7734 12.1524L7.21544 16.7643C7.03888 16.9437 6.73264 16.9421 6.55608 16.7627L2.06248 12.1557C0.684357 10.7428 -0.0453348 8.78684 0.0624772 6.79082C0.171837 4.76766 1.0906 2.94787 2.6484 1.66793C3.8406 0.687553 5.35624 0.147705 6.9156 0.147705ZM3.85312 7.18032C3.85312 8.91198 5.22652 10.3201 6.9156 10.3201C8.60464 10.3201 9.97964 8.91202 9.97808 7.18032C9.97808 5.44865 8.60468 4.04055 6.9156 4.04055C5.22656 4.04055 3.85312 5.44861 3.85312 7.18032Z" fill="white"/>
<path d="M6.9156 5.64966C6.09216 5.64966 5.4234 6.3353 5.4234 7.17952C5.4234 8.02374 6.09216 8.70937 6.9156 8.70937C7.73904 8.70937 8.4078 8.02374 8.4078 7.17952C8.4078 6.3353 7.73904 5.64966 6.9156 5.64966Z" fill="white"/>
</g>
</svg>
