<svg width="60" height="46" viewBox="0 0 60 46" fill="none" xmlns="http://www.w3.org/2000/svg">
<path fill-rule="evenodd" clip-rule="evenodd" d="M59.5976 42.8612C59.5882 42.8896 59.5765 42.9181 59.5623 42.9442L59.5628 42.9438C59.5487 42.9723 59.5346 42.9984 59.5064 43.0174C59.4954 43.0348 59.4844 43.0501 59.4734 43.0654C59.4679 43.0731 59.4625 43.0807 59.457 43.0886C59.4382 43.1123 59.417 43.1385 59.3958 43.1622C59.377 43.1812 59.3582 43.2002 59.337 43.2191C59.3135 43.2429 59.2876 43.2642 59.2618 43.2832C59.251 43.2905 59.2389 43.2984 59.2266 43.3063C59.2148 43.3138 59.2027 43.3213 59.1912 43.3283C59.1842 43.3319 59.1773 43.3356 59.1704 43.3393C59.1656 43.342 59.1608 43.3447 59.156 43.3473C59.1402 43.3562 59.1242 43.3652 59.1066 43.3734C59.0971 43.3782 59.0873 43.3825 59.0773 43.3864C59.0665 43.3908 59.0555 43.3948 59.0444 43.3988C59.0354 43.4021 59.0263 43.4055 59.0172 43.409C59.0109 43.4114 59.0049 43.414 58.9989 43.4167C58.9932 43.4192 58.9875 43.4217 58.9815 43.4239C58.975 43.4265 58.9682 43.4287 58.9608 43.4304C58.956 43.4315 58.9519 43.4315 58.9478 43.4315H58.9465C58.9428 43.4316 58.9391 43.4317 58.9349 43.4327C58.862 43.4517 58.7867 43.4636 58.7091 43.4636C58.6033 43.4636 58.5657 43.4802 58.5657 43.4802C58.5224 43.5308 58.4438 43.7839 58.3941 43.9442L58.3893 43.9596C58.2058 44.5529 57.8225 45.787 56.2728 45.787C54.9471 45.787 54.2886 44.8988 53.8068 44.2489L53.8034 44.2444C53.3519 43.6297 53.1802 43.4635 52.8415 43.4635C52.5029 43.4635 52.3335 43.6296 51.8797 44.2419L51.8763 44.2465C51.3945 44.8963 50.7359 45.7846 49.408 45.7846C48.0823 45.7846 47.4238 44.8964 46.942 44.2465L46.9386 44.2419C46.4871 43.6297 46.3154 43.4635 45.9768 43.4635C45.6405 43.4635 45.4688 43.6297 45.0149 44.2444C44.5351 44.8946 43.8743 45.787 42.5456 45.787C41.2176 45.787 40.5591 44.8988 40.0773 44.2489L40.0739 44.2444C39.6223 43.6321 39.4506 43.466 39.112 43.466C38.7733 43.466 38.604 43.6321 38.1501 44.2444C37.6704 44.8946 37.0118 45.787 35.6808 45.787C34.3551 45.787 33.6967 44.8988 33.2149 44.2489L33.2115 44.2444C32.7599 43.6321 32.5882 43.466 32.2496 43.466C31.9133 43.466 31.7416 43.6321 31.2877 44.2468C30.8079 44.897 30.1471 45.7894 28.8184 45.7894C27.4927 45.7894 26.8342 44.9012 26.3524 44.2514L26.349 44.2468C25.8975 43.6345 25.7258 43.4684 25.3872 43.4684C25.0509 43.4684 24.8792 43.6346 24.4253 44.2492C23.9455 44.8995 23.2846 45.7918 21.9559 45.7918C21.5349 45.7918 21.1516 45.6186 20.8812 45.3053C20.225 44.5507 20.3567 43.2644 20.6272 41.2281L20.6318 41.1929C20.7284 40.4561 20.8757 39.3326 20.8271 38.7861C19.0704 39.1324 16.5775 42.6854 15.2841 45.2698C15.1242 45.5926 14.7973 45.792 14.4446 45.792C14.4257 45.792 14.4069 45.792 14.3881 45.7896C14.0142 45.7683 13.6873 45.5238 13.5603 45.1678C13.3439 44.5645 11.4955 39.1941 13.4168 36.2228C14.1365 35.1121 15.3029 34.4737 16.7939 34.3764C18.0897 34.291 18.6824 33.9397 18.7952 33.6621C18.8705 33.477 18.7506 33.1613 18.4872 32.8599C17.7863 32.0554 16.2201 31.4099 14.4375 31.8988C11.9657 32.5732 9.19539 35.917 8.26174 39.3534C7.93483 40.5614 7.58204 42.797 8.91785 44.1806C9.28001 44.558 9.27061 45.1584 8.89903 45.5238C8.5251 45.8893 7.9325 45.8822 7.56798 45.5049C6.09344 43.979 5.69599 41.6153 6.4462 38.8528C7.41729 35.2739 10.4888 31.0092 13.9458 30.067C16.5209 29.3645 18.7903 30.3328 19.9004 31.6072C20.6694 32.4877 20.8999 33.5011 20.5353 34.3887C20.2179 35.16 19.3336 36.1141 16.916 36.2731C16.0153 36.3324 15.3874 36.6575 14.9947 37.2627C14.2022 38.4873 14.3856 40.6588 14.7454 42.3913C16.1565 40.1058 18.6329 36.7856 21.1963 36.8663C21.6102 36.8806 21.9841 37.0609 22.2475 37.3766C22.5109 37.6898 22.6402 38.0957 22.6873 38.5988C24.4181 37.443 26.9442 36.2991 31.9298 35.7912C26.5253 13.6964 36.685 1.25821 37.146 0.709996C37.1499 0.706034 37.1538 0.702898 37.1576 0.699899C37.1628 0.695714 37.1677 0.691794 37.1718 0.686264C37.2 0.65541 37.2283 0.629304 37.2588 0.603199C37.2776 0.584213 37.2965 0.5676 37.3176 0.553361C37.3465 0.533919 37.3754 0.517663 37.4056 0.500678L37.4258 0.489282C37.4446 0.477415 37.4634 0.465549 37.4846 0.456056C37.5293 0.43707 37.574 0.422831 37.621 0.410964C37.632 0.409383 37.6429 0.405691 37.6539 0.402L37.654 0.401986C37.6594 0.400145 37.6649 0.398304 37.6704 0.396725C37.7339 0.382485 37.7997 0.375366 37.8679 0.375366L38.0067 0.380112C38.2842 0.380112 38.5452 0.501149 38.7239 0.71474C39.1849 1.26032 49.2949 13.6349 43.9871 35.6228C57.8667 36.4439 59.5647 42.0329 59.6305 42.2773C59.6329 42.2868 59.6329 42.2987 59.6352 42.3082L59.6494 42.4007C59.6541 42.434 59.6588 42.4672 59.6588 42.5004C59.6588 42.5027 59.6589 42.505 59.6591 42.5073L59.6599 42.5147C59.6603 42.5172 59.6606 42.5198 59.6608 42.5223C59.661 42.5245 59.6611 42.5267 59.6611 42.5289C59.6611 42.5352 59.6608 42.5413 59.6604 42.5473C59.6597 42.5574 59.6584 42.5673 59.6571 42.5778L59.6564 42.5835L59.6562 42.5869C59.6539 42.6191 59.6515 42.6534 59.6446 42.6855C59.6435 42.6927 59.6421 42.6999 59.6407 42.7071C59.6394 42.7132 59.6381 42.7193 59.6368 42.7253C59.6334 42.7405 59.6296 42.7558 59.6258 42.771L59.621 42.7875L59.6177 42.7991C59.6117 42.8204 59.6058 42.8413 59.5976 42.8612ZM38.8081 38.5466H41.2398C46.5949 20.8735 41.5573 8.95955 38.8081 4.22964V38.5466ZM36.9268 4.47874V38.5466H34.6338C29.3824 21.2174 34.1564 9.37925 36.9268 4.47874ZM56.599 43.42L56.6039 43.4046L56.6031 43.4047C56.7136 43.0486 56.9017 42.4648 57.365 42.0543C56.3235 40.7252 53.0382 37.996 43.5018 37.5C43.2949 38.2523 43.0715 39.0141 42.8269 39.7878C42.7022 40.1817 42.3401 40.4499 41.9309 40.4499H33.94C33.5308 40.4499 33.1686 40.1817 33.044 39.7878C32.8182 39.0663 32.6112 38.3567 32.416 37.6566C26.3696 38.2309 24.2061 39.7617 22.5528 41.0527C22.5455 41.1083 22.5385 41.1635 22.5314 41.2192C22.5204 41.3062 22.5093 41.3944 22.4964 41.487C22.4047 42.18 22.2635 43.2479 22.2918 43.8175C22.4635 43.7155 22.6375 43.5066 22.9197 43.1222L22.9231 43.1176C23.4049 42.4678 24.0634 41.5795 25.3914 41.5795C26.717 41.5795 27.3755 42.4677 27.8573 43.1176L27.8607 43.1222C28.3123 43.7344 28.4839 43.9006 28.8226 43.9006C29.1612 43.9006 29.3306 43.7345 29.7845 43.1222L29.7878 43.1176C30.2696 42.4678 30.9282 41.5795 32.2561 41.5795C33.5818 41.5795 34.2403 42.4677 34.7221 43.1176L34.7255 43.1222C35.1794 43.7344 35.3511 43.9006 35.6874 43.9006C36.026 43.9006 36.1954 43.7345 36.6492 43.1222C37.129 42.4719 37.7875 41.5795 39.1186 41.5795C40.4442 41.5795 41.1027 42.4677 41.5845 43.1176L41.5879 43.1222C42.0418 43.7369 42.2135 43.903 42.5521 43.903C42.8908 43.903 43.0601 43.7369 43.514 43.1246L43.5174 43.1201C43.9992 42.4702 44.6577 41.582 45.9857 41.582C47.3113 41.582 47.9698 42.4702 48.4516 43.12L48.455 43.1246C48.9066 43.7369 49.0783 43.903 49.4169 43.903C49.7555 43.903 49.9272 43.7368 50.3811 43.1222C50.8609 42.4719 51.5218 41.5795 52.8505 41.5795C54.1785 41.5795 54.8369 42.4677 55.3187 43.1176L55.3221 43.1222C55.776 43.7344 55.9477 43.9006 56.284 43.9006C56.3898 43.9006 56.4275 43.884 56.4275 43.884C56.4707 43.8334 56.5493 43.5804 56.599 43.42Z" fill="white"/>
<path d="M7.28833 30.1358C7.16839 29.991 6.0772 28.7308 4.68029 28.7308C4.03358 28.7308 3.10932 28.999 2.38266 30.2735L1.57129 31.6974H8.59108L7.28833 30.1358Z" fill="white" stroke="#222532"/>
<path fill-rule="evenodd" clip-rule="evenodd" d="M5.46384 33.5745L6.43042 33.6766L6.30817 34.6496C5.95302 37.2791 3.20622 40.0535 3.08864 40.1721L1.81634 41.4442L1.50121 39.6643C1.12728 37.5711 1.39302 35.962 2.28904 34.8822C3.54249 33.3704 5.46384 33.5745 5.46384 33.5745ZM3.73533 36.0997C3.56835 36.299 3.44371 36.553 3.3567 36.852L3.35671 36.852C3.5566 36.5506 3.74944 36.235 3.91406 35.9169C3.85291 35.9715 3.79177 36.0309 3.73533 36.0997Z" fill="white"/>
<path d="M6.43042 33.6766L6.92652 33.7389L6.9901 33.2329L6.48292 33.1793L6.43042 33.6766ZM5.46384 33.5745L5.41103 34.0717L5.41135 34.0718L5.46384 33.5745ZM6.30817 34.6496L6.80369 34.7165L6.80427 34.7119L6.30817 34.6496ZM3.08864 40.1721L3.44216 40.5257L3.4438 40.5241L3.08864 40.1721ZM1.81634 41.4442L1.324 41.5314L1.49129 42.4763L2.16987 41.7978L1.81634 41.4442ZM1.50121 39.6643L1.99355 39.5771L1.99342 39.5763L1.50121 39.6643ZM2.28904 34.8822L2.67382 35.2015L2.67394 35.2013L2.28904 34.8822ZM3.3567 36.852L2.87661 36.7123L2.82251 36.8982L2.90774 37.0721L3.3567 36.852ZM3.73533 36.0997L4.11866 36.4207L4.12195 36.4167L3.73533 36.0997ZM3.35671 36.852L2.90775 37.0721L3.29151 37.855L3.77339 37.1284L3.35671 36.852ZM3.91406 35.9169L4.3581 36.1468L3.58111 35.5439L3.91406 35.9169ZM6.48292 33.1793L5.51634 33.0773L5.41135 34.0718L6.37792 34.1738L6.48292 33.1793ZM6.80427 34.7119L6.92652 33.7389L5.93432 33.6143L5.81207 34.5873L6.80427 34.7119ZM3.4438 40.5241C3.51087 40.4564 4.24753 39.712 5.01526 38.6444C5.77355 37.5899 6.60918 36.1565 6.80367 34.7165L5.81267 34.5827C5.65201 35.7722 4.93667 37.0408 4.20338 38.0605C3.47952 39.0671 2.78398 39.7692 2.73347 39.8202L3.4438 40.5241ZM2.16987 41.7978L3.44216 40.5257L2.73511 39.8185L1.46282 41.0906L2.16987 41.7978ZM1.00887 39.7514L1.324 41.5314L2.30869 41.357L1.99355 39.5771L1.00887 39.7514ZM1.90426 34.5629C0.874425 35.8039 0.622631 37.5893 1.009 39.7522L1.99342 39.5763C1.63193 37.5528 1.91162 36.12 2.67382 35.2015L1.90426 34.5629ZM5.46384 33.5745C5.51666 33.0773 5.51645 33.0773 5.51623 33.0773C5.51614 33.0773 5.51591 33.0773 5.51575 33.0772C5.51541 33.0772 5.51505 33.0772 5.51466 33.0771C5.51387 33.077 5.51296 33.0769 5.51194 33.0768C5.50989 33.0766 5.50736 33.0764 5.50438 33.0761C5.49841 33.0756 5.49058 33.0749 5.48099 33.0741C5.4618 33.0726 5.43549 33.0709 5.40271 33.0693C5.3372 33.0662 5.24549 33.0639 5.13282 33.0664C4.90812 33.0714 4.59631 33.0958 4.24067 33.1728C3.5301 33.3266 2.62262 33.6965 1.90414 34.563L2.67394 35.2013C3.20891 34.5561 3.88883 34.2721 4.4523 34.1501C4.73368 34.0892 4.98055 34.0701 5.15528 34.0661C5.24232 34.0642 5.3105 34.066 5.35496 34.0681C5.37717 34.0692 5.39336 34.0703 5.40293 34.0711C5.40771 34.0715 5.41083 34.0717 5.41221 34.0719C5.4129 34.0719 5.41315 34.072 5.41296 34.0719C5.41286 34.0719 5.41265 34.0719 5.41233 34.0719C5.41217 34.0719 5.41198 34.0718 5.41176 34.0718C5.41165 34.0718 5.41147 34.0718 5.41142 34.0718C5.41122 34.0718 5.41103 34.0717 5.46384 33.5745ZM3.83679 36.9917C3.9098 36.7408 4.00697 36.5541 4.11864 36.4207L3.35202 35.7786C3.12973 36.044 2.97763 36.3652 2.87661 36.7123L3.83679 36.9917ZM3.80567 36.6319L3.80566 36.6319L2.90774 37.0721L2.90775 37.0721L3.80567 36.6319ZM3.47003 35.6871C3.31612 35.9844 3.13341 36.2841 2.94002 36.5757L3.77339 37.1284C3.97979 36.8172 4.18277 36.4855 4.3581 36.1468L3.47003 35.6871ZM4.12195 36.4167C4.15577 36.3755 4.19615 36.3354 4.24702 36.29L3.58111 35.5439C3.50967 35.6077 3.42777 35.6862 3.34871 35.7826L4.12195 36.4167Z" fill="#222532"/>
<path fill-rule="evenodd" clip-rule="evenodd" d="M12.7066 28.2913C12.7066 29.2833 11.9047 30.0902 10.9217 30.0902C9.93864 30.0902 9.13907 29.2833 9.13907 28.2913C9.13907 27.2993 9.93864 26.4924 10.9217 26.4924C11.907 26.4924 12.7066 27.2993 12.7066 28.2913ZM11.0204 28.2913C11.0204 28.2367 10.9757 28.1916 10.9217 28.1916C10.8676 28.1916 10.8252 28.2367 10.8252 28.2913C10.8252 28.4005 11.0204 28.4005 11.0204 28.2913Z" fill="white"/>
<path d="M10.9217 30.5902C12.1842 30.5902 13.2066 29.556 13.2066 28.2913H12.2066C12.2066 29.0106 11.6251 29.5902 10.9217 29.5902V30.5902ZM8.63907 28.2913C8.63907 29.5552 9.65821 30.5902 10.9217 30.5902V29.5902C10.2191 29.5902 9.63907 29.0115 9.63907 28.2913H8.63907ZM10.9217 25.9924C9.65821 25.9924 8.63907 27.0275 8.63907 28.2913H9.63907C9.63907 27.5712 10.2191 26.9924 10.9217 26.9924V25.9924ZM13.2066 28.2913C13.2066 27.0271 12.187 25.9924 10.9217 25.9924V26.9924C11.627 26.9924 12.2066 27.5716 12.2066 28.2913H13.2066ZM10.9217 28.6916C10.6953 28.6916 10.5204 28.5086 10.5204 28.2913H11.5204C11.5204 27.9649 11.2562 27.6916 10.9217 27.6916V28.6916ZM11.3252 28.2913C11.3252 28.4927 11.1635 28.6916 10.9217 28.6916V27.6916C10.5716 27.6916 10.3252 27.9808 10.3252 28.2913H11.3252ZM10.5204 28.2913C10.5204 28.1492 10.5923 28.0255 10.691 27.9519C10.7754 27.8889 10.8619 27.8732 10.9228 27.8732C10.9837 27.8732 11.0702 27.8889 11.1546 27.9519C11.2534 28.0255 11.3252 28.1492 11.3252 28.2913H10.3252C10.3252 28.488 10.4215 28.6526 10.5568 28.7535C10.6779 28.8438 10.8131 28.8732 10.9228 28.8732C11.0325 28.8732 11.1678 28.8438 11.2888 28.7535C11.4242 28.6526 11.5204 28.488 11.5204 28.2913H10.5204Z" fill="#222532"/>
</svg>
