<svg width="50" height="32" viewBox="0 0 50 32" fill="none" xmlns="http://www.w3.org/2000/svg">
<path fill-rule="evenodd" clip-rule="evenodd" d="M48.75 21.2762V24.0227L48.7496 24.0228C49.3199 24.1388 49.7496 24.6394 49.7496 25.2347V26.2223C49.7496 26.8215 49.3199 27.3201 48.7496 27.4361V27.4612H42.1851C41.8218 29.7013 39.8628 31.4196 37.4995 31.4196C35.1362 31.4196 33.1773 29.7013 32.8159 27.4612H15.4349C15.0716 29.7013 13.1127 31.4196 10.7494 31.4196C8.38609 31.4196 6.42517 29.6994 6.06384 27.4612H2.24939L1.50134 27.4632C0.80994 27.4632 0.24939 26.9065 0.24939 26.2243V25.2366C0.24939 24.5524 0.81189 23.9977 1.50134 23.9977H2.24939V12.8669C2.24939 9.45546 5.05414 6.67998 8.50139 6.67998L14.2709 6.67611V4.70274C8.18539 4.12873 3.02894 3.05602 1.46839 1.51173C1.23597 1.28368 1.18128 0.931895 1.33362 0.643911C1.48597 0.357857 1.8063 0.199371 2.13052 0.257355C7.10702 1.13869 14.8455 1.25659 21.7555 1.25659C23.2243 1.25659 24.6677 1.25272 26.0544 1.24692C26.407 1.24586 26.7559 1.24466 27.1008 1.24347L27.1009 1.24347L27.101 1.24347L27.1011 1.24347L27.1014 1.24347L27.1017 1.24347L27.1018 1.24347C28.0154 1.24031 28.9006 1.23726 29.7497 1.23726L36.1872 1.23919H36.1891C40.5466 1.23919 43.2302 1.2102 46.7106 1.04205C47.0544 1.02849 47.3727 1.24884 47.4684 1.57934C47.5641 1.90986 47.4176 2.26357 47.1149 2.43172C46.613 2.71004 45.988 2.96902 45.2477 3.20869V4.71048C45.2477 5.37924 44.8883 5.95712 44.2848 6.25864C44.029 6.3862 43.7594 6.44998 43.4919 6.44998C43.1286 6.44998 42.7673 6.33401 42.4548 6.10401L40.0349 4.32781C36.9529 4.77236 33.1366 5.05455 28.7499 5.15505V6.68193L33.9979 6.68C37.3419 6.68 40.4258 7.78749 42.9024 9.64875L43.1074 9.80723C45.1797 11.4209 46.8047 13.5722 47.7676 16.048L47.7735 16.0596L47.7871 16.0925C47.8007 16.1308 47.8154 16.1679 47.83 16.2048L47.8301 16.205L47.8301 16.2051L47.8302 16.2052L47.8302 16.2053L47.8303 16.2054C47.8429 16.2373 47.8555 16.2691 47.8672 16.3012L48.166 17.0686H48.1231C48.5293 18.4022 48.75 19.815 48.75 21.2762ZM35.0002 15.586H45.9317H45.9319C45.0921 13.8717 43.8811 12.3505 42.3792 11.1329H35.0002C34.8654 11.1329 34.7502 11.2469 34.7502 11.3803V15.3386C34.7502 15.472 34.8654 15.586 35.0002 15.586ZM43.75 4.71049C43.75 4.81293 43.7051 4.88637 43.6113 4.93276C43.5176 4.97915 43.4336 4.97142 43.3496 4.90957L42.0918 3.98762C42.6817 3.87552 43.2344 3.75569 43.75 3.63006L43.75 4.71049ZM25.0908 2.73613L25.0906 2.73613C24.0042 2.73947 22.8892 2.7429 21.758 2.7429L21.7585 2.74286C17.319 2.74286 12.5376 2.69261 8.33647 2.42395C12.3715 3.17777 18.1745 3.7112 25.0005 3.7112C31.2735 3.7112 36.7601 3.34788 40.7425 2.70811C39.385 2.72357 37.9182 2.72937 36.1917 2.72937H36.1897L29.7502 2.72357C28.5823 2.72357 27.3459 2.72744 26.0608 2.73324L25.0908 2.73613ZM15.7715 4.83612C18.7813 5.07385 21.957 5.19561 25 5.19561C25.7637 5.19561 26.5137 5.18982 27.25 5.18015V6.67997H15.7715V4.83612ZM7.50002 26.7193C7.50002 28.4935 8.95707 29.9354 10.75 29.9354C12.543 29.9354 14 28.4935 14 26.7193C14 24.945 12.543 23.5031 10.75 23.5031C8.95707 23.5031 7.50002 24.945 7.50002 26.7193ZM37.5 29.9354C35.7071 29.9354 34.25 28.4935 34.25 26.7193C34.25 24.945 35.7071 23.5031 37.5 23.5031C39.293 23.5031 40.75 24.945 40.75 26.7193C40.75 28.4935 39.293 29.9354 37.5 29.9354ZM37.5 22.0187C39.8633 22.0187 41.8242 23.737 42.1856 25.9771H48.25V25.4823H43.75V23.9979H47.25V21.2785C47.25 19.8057 47 18.3929 46.5469 17.0708H34.9999C34.035 17.0708 33.2499 16.2939 33.2499 15.3391V11.3807C33.2499 10.4259 34.035 9.64896 34.9999 9.64896H40.1114C38.2811 8.70381 36.201 8.16458 33.9979 8.16458H8.50187C5.88077 8.16458 3.74992 10.2752 3.74992 12.867V15.5865H11.2849V17.0708H3.74992V23.9979H4.74992V25.4823H1.74992V25.9771H6.06437C6.42767 23.737 8.38662 22.0187 10.7499 22.0187C13.1132 22.0187 15.0741 23.737 15.4355 25.9771H32.8145C33.1778 23.737 35.1367 22.0187 37.5 22.0187Z" fill="white"/>
<path fill-rule="evenodd" clip-rule="evenodd" d="M22.75 11.3803V15.3387C22.75 16.2935 21.9648 17.0704 21 17.0704H16C15.0351 17.0704 14.25 16.2935 14.25 15.3387V11.3803C14.25 10.4255 15.0351 9.64856 16 9.64856H21C21.9648 9.64856 22.75 10.4255 22.75 11.3803ZM15.75 11.3803V15.3387C15.75 15.474 15.8652 15.5861 16 15.5861H21C21.1348 15.5861 21.25 15.472 21.25 15.3387V11.3803C21.25 11.247 21.1348 11.1329 21 11.1329H16C15.8652 11.1329 15.75 11.247 15.75 11.3803Z" fill="white"/>
<path fill-rule="evenodd" clip-rule="evenodd" d="M25.5 9.64856H30.5C31.4649 9.64856 32.25 10.4255 32.25 11.3803V15.3387C32.25 16.2935 31.4649 17.0704 30.5 17.0704H25.5C24.5352 17.0704 23.75 16.2935 23.75 15.3387V11.3803C23.75 10.4255 24.5352 9.64856 25.5 9.64856ZM30.5 15.5861C30.6348 15.5861 30.75 15.472 30.75 15.3387V11.3803C30.75 11.247 30.6348 11.1329 30.5 11.1329H25.5C25.3653 11.1329 25.25 11.247 25.25 11.3803V15.3387C25.25 15.472 25.3653 15.5861 25.5 15.5861H30.5Z" fill="white"/>
<path fill-rule="evenodd" clip-rule="evenodd" d="M35.5 26.7188C35.5 25.6268 36.3965 24.7396 37.5 24.7396C38.6035 24.7396 39.5 25.6287 39.5 26.7188C39.5 27.8108 38.6035 28.698 37.5 28.698C36.3965 28.698 35.5 27.8108 35.5 26.7188ZM37 26.7188C37 26.9913 37.2246 27.2136 37.5 27.2136C37.7754 27.2136 38 26.9913 38 26.7188C38 26.4463 37.7754 26.224 37.5 26.224C37.2246 26.224 37 26.4463 37 26.7188Z" fill="white"/>
<path fill-rule="evenodd" clip-rule="evenodd" d="M8.75 26.7188C8.75 25.6268 9.6465 24.7396 10.75 24.7396C11.8535 24.7396 12.75 25.6287 12.75 26.7188C12.75 27.8108 11.8535 28.698 10.75 28.698C9.6465 28.698 8.75 27.8089 8.75 26.7188ZM10.25 26.7188C10.25 26.9913 10.4746 27.2136 10.75 27.2136C11.0254 27.2136 11.25 26.9913 11.25 26.7188C11.25 26.4463 11.0254 26.224 10.75 26.224C10.4746 26.224 10.25 26.4463 10.25 26.7188Z" fill="white"/>
<path d="M16.25 23.9974H31.75V25.4818H16.25V23.9974Z" fill="white"/>
</svg>
