<svg width="465" height="276" viewBox="0 0 465 276" fill="none" xmlns="http://www.w3.org/2000/svg">
<path opacity="0.0654018" d="M72.6 -26.6C91.1333 -26.6 107.067 -20.7333 120.4 -9L102.2 9.99999C97.1333 6.39999 92.5333 3.79999 88.4 2.2C84.4 0.466664 79.8 -0.400003 74.6 -0.400003C64.6 -0.400003 56.7333 3.46666 51 11.2C45.4 18.9333 42.6 30.7333 42.6 46.6C42.6 58.2 43.5333 67.4 45.4 74.2C47.2667 80.8667 50.0667 85.6667 53.8 88.6C57.6667 91.5333 62.6 93 68.6 93C74.6 93 80.0667 91.7333 85 89.2V60.6H69.2L65.6 35.2H120.8V104.4C113.6 109.2 105.467 112.933 96.4 115.6C87.3333 118.267 78.4 119.6 69.6 119.6C26.1333 119.6 4.4 95.2 4.4 46.4C4.4 31.2 7.33333 18.1333 13.2 7.19999C19.2 -3.86667 27.3333 -12.2667 37.6 -18C47.8667 -23.7333 59.5333 -26.6 72.6 -26.6ZM197.883 -26.6C218.016 -26.6 233.683 -20.2 244.883 -7.40001C256.083 5.39999 261.683 23.3333 261.683 46.4C261.683 61.4667 259.149 74.5333 254.083 85.6C249.149 96.5333 241.883 104.933 232.283 110.8C222.683 116.667 211.216 119.6 197.883 119.6C177.749 119.6 162.083 113.2 150.883 100.4C139.816 87.6 134.283 69.6 134.283 46.4C134.283 31.3333 136.749 18.3333 141.683 7.39999C146.749 -3.53334 154.016 -11.9333 163.483 -17.8C173.083 -23.6667 184.549 -26.6 197.883 -26.6ZM197.883 -8.58307e-06C189.216 -8.58307e-06 182.816 3.59999 178.683 10.8C174.683 18 172.683 29.8667 172.683 46.4C172.683 62.9333 174.749 74.8667 178.883 82.2C183.016 89.4 189.349 93 197.883 93C206.683 93 213.083 89.4 217.083 82.2C221.083 75 223.083 63.0667 223.083 46.4C223.083 29.8667 221.083 18 217.083 10.8C213.083 3.59999 206.683 -8.58307e-06 197.883 -8.58307e-06ZM57.8 129.4C68.3333 129.4 77.6 130.933 85.6 134C93.7333 137.067 101 141.667 107.4 147.8L90.8 167.4C81.2 159.8 71.1333 156 60.6 156C55.1333 156 50.9333 157.067 48 159.2C45.2 161.2 43.8 164.067 43.8 167.8C43.8 170.467 44.5333 172.667 46 174.4C47.4667 176.133 49.9333 177.8 53.4 179.4C56.8667 181 62.3333 183 69.8 185.4C84.0667 189.933 94.4667 195.667 101 202.6C107.667 209.4 111 218.867 111 231C111 239.8 108.733 247.6 104.2 254.4C99.6667 261.067 93.0667 266.267 84.4 270C75.8667 273.733 65.8 275.6 54.2 275.6C32.0667 275.6 14 268.867 7.07805e-08 255.4L18.2 235.2C29.2667 244.267 40.8 248.8 52.8 248.8C59.0667 248.8 63.9333 247.467 67.4 244.8C70.8667 242 72.6 238.333 72.6 233.8C72.6 230.6 71.9333 228 70.6 226C69.2667 223.867 66.8667 222 63.4 220.4C60.0667 218.667 55.1333 216.8 48.6 214.8C32.8667 209.867 21.8 203.933 15.4 197C9 190.067 5.8 181.333 5.8 170.8C5.8 162.533 8 155.267 12.4 149C16.9333 142.733 23.1333 137.933 31 134.6C39 131.133 47.9333 129.4 57.8 129.4ZM235.816 225.4C235.816 235 233.682 243.6 229.416 251.2C225.282 258.8 219.016 264.8 210.616 269.2C202.216 273.467 191.949 275.6 179.816 275.6C161.416 275.6 147.482 271.133 138.016 262.2C128.549 253.133 123.816 240.867 123.816 225.4V133H160.816V224.2C160.816 232.6 162.282 238.8 165.216 242.8C168.282 246.667 173.149 248.6 179.816 248.6C186.482 248.6 191.282 246.6 194.216 242.6C197.149 238.6 198.616 232.467 198.616 224.2V133H235.816V225.4ZM302.508 220.8H292.308V272H255.308V133H303.508C323.108 133 337.708 136.533 347.308 143.6C357.041 150.667 361.908 161.533 361.908 176.2C361.908 185 359.841 192.333 355.708 198.2C351.708 204.067 345.241 209.333 336.308 214L370.908 272H329.708L302.508 220.8ZM292.308 195.6H304.708C317.508 195.6 323.908 189.133 323.908 176.2C323.908 170.2 322.108 165.8 318.508 163C315.041 160.2 309.774 158.8 302.708 158.8H292.308V195.6ZM379.331 272V133H464.731L460.931 159.2H416.331V192.6H455.531V218.8H416.331V272H379.331Z" fill="white"/>
</svg>
