<svg width="503" height="147" viewBox="0 0 503 147" fill="none" xmlns="http://www.w3.org/2000/svg">
<path opacity="0.02" d="M57.8 0.399988C68.3333 0.399988 77.6 1.93332 85.6 4.99999C93.7333 8.06666 101 12.6667 107.4 18.8L90.8 38.4C81.2 30.8 71.1333 27 60.6 27C55.1333 27 50.9333 28.0667 48 30.2C45.2 32.2 43.8 35.0667 43.8 38.8C43.8 41.4667 44.5333 43.6667 46 45.4C47.4667 47.1333 49.9333 48.8 53.4 50.4C56.8667 52 62.3333 54 69.8 56.4C84.0667 60.9333 94.4667 66.6667 101 73.6C107.667 80.4 111 89.8667 111 102C111 110.8 108.733 118.6 104.2 125.4C99.6667 132.067 93.0667 137.267 84.4 141C75.8667 144.733 65.8 146.6 54.2 146.6C32.0667 146.6 14 139.867 7.07805e-08 126.4L18.2 106.2C29.2667 115.267 40.8 119.8 52.8 119.8C59.0667 119.8 63.9333 118.467 67.4 115.8C70.8667 113 72.6 109.333 72.6 104.8C72.6 101.6 71.9333 99 70.6 97C69.2667 94.8667 66.8667 93 63.4 91.4C60.0667 89.6667 55.1333 87.8 48.6 85.8C32.8667 80.8667 21.8 74.9333 15.4 68C9 61.0667 5.8 52.3333 5.8 41.8C5.8 33.5333 8 26.2667 12.4 20C16.9333 13.7333 23.1333 8.93332 31 5.59999C39 2.13332 47.9333 0.399988 57.8 0.399988ZM199.616 143V85.2H162.816V143H125.816V3.99999H162.816V56.6H199.616V3.99999H236.616V143H199.616ZM316.242 0.399988C336.376 0.399988 352.042 6.79999 363.242 19.6C374.442 32.4 380.042 50.3333 380.042 73.4C380.042 88.4667 377.509 101.533 372.442 112.6C367.509 123.533 360.242 131.933 350.642 137.8C341.042 143.667 329.576 146.6 316.242 146.6C296.109 146.6 280.442 140.2 269.242 127.4C258.176 114.6 252.642 96.6 252.642 73.4C252.642 58.3333 255.109 45.3333 260.042 34.4C265.109 23.4667 272.376 15.0667 281.842 9.19999C291.442 3.33332 302.909 0.399988 316.242 0.399988ZM316.242 27C307.576 27 301.176 30.6 297.042 37.8C293.042 45 291.042 56.8667 291.042 73.4C291.042 89.9333 293.109 101.867 297.242 109.2C301.376 116.4 307.709 120 316.242 120C325.042 120 331.442 116.4 335.442 109.2C339.442 102 341.442 90.0667 341.442 73.4C341.442 56.8667 339.442 45 335.442 37.8C331.442 30.6 325.042 27 316.242 27ZM443.728 3.99999C462.395 3.99999 476.861 7.93332 487.128 15.8C497.528 23.5333 502.728 34.9333 502.728 50C502.728 65.7333 497.728 77.7333 487.728 86C477.728 94.1333 464.261 98.2 447.328 98.2H433.128V143H396.128V3.99999H443.728ZM443.928 71.8C450.861 71.8 456.061 70.0667 459.528 66.6C463.128 63.1333 464.928 57.6667 464.928 50.2C464.928 36.7333 457.661 30 443.128 30H433.128V71.8H443.928Z" fill="white"/>
</svg>
