<svg width="669" height="139" viewBox="0 0 669 139" fill="none" xmlns="http://www.w3.org/2000/svg">
<path opacity="0.02" d="M108.8 -1.04904e-05L105 28.2H72.2V139H35.2V28.2H0.4V-1.04904e-05H108.8ZM166.375 87.8H156.175V139H119.175V-1.04904e-05H167.375C186.975 -1.04904e-05 201.575 3.53333 211.175 10.6C220.908 17.6667 225.775 28.5333 225.775 43.2C225.775 52 223.708 59.3333 219.575 65.2C215.575 71.0667 209.108 76.3333 200.175 81L234.775 139H193.575L166.375 87.8ZM156.175 62.6H168.575C181.375 62.6 187.775 56.1333 187.775 43.2C187.775 37.2 185.975 32.8 182.375 30C178.908 27.2 173.642 25.8 166.575 25.8H156.175V62.6ZM316.198 139L309.998 110.6H273.198L266.998 139H228.598L269.798 -1.04904e-05H314.198L355.398 139H316.198ZM278.998 84.2H304.198L291.598 26.4L278.998 84.2ZM466.628 -1.04904e-05L429.828 139H382.628L344.028 -1.04904e-05H383.028L406.828 112L428.828 -1.04904e-05H466.628ZM561.867 -1.04904e-05L558.067 26.2H510.667V55.8H552.067V81.2H510.667V112.8H561.267V139H473.667V-1.04904e-05H561.867ZM615.355 -1.04904e-05V110.2H668.755L664.755 139H578.355V-1.04904e-05H615.355Z" fill="white"/>
</svg>
