<svg width="546" height="147" viewBox="0 0 546 147" fill="none" xmlns="http://www.w3.org/2000/svg">
<path opacity="0.02" d="M57.8 0.399988C68.3333 0.399988 77.6 1.93332 85.6 4.99999C93.7333 8.06666 101 12.6667 107.4 18.8L90.8 38.4C81.2 30.8 71.1333 27 60.6 27C55.1333 27 50.9333 28.0667 48 30.2C45.2 32.2 43.8 35.0667 43.8 38.8C43.8 41.4667 44.5333 43.6667 46 45.4C47.4667 47.1333 49.9333 48.8 53.4 50.4C56.8667 52 62.3333 54 69.8 56.4C84.0667 60.9333 94.4667 66.6667 101 73.6C107.667 80.4 111 89.8667 111 102C111 110.8 108.733 118.6 104.2 125.4C99.6667 132.067 93.0667 137.267 84.4 141C75.8667 144.733 65.8 146.6 54.2 146.6C32.0667 146.6 14 139.867 7.07805e-08 126.4L18.2 106.2C29.2667 115.267 40.8 119.8 52.8 119.8C59.0667 119.8 63.9333 118.467 67.4 115.8C70.8667 113 72.6 109.333 72.6 104.8C72.6 101.6 71.9333 99 70.6 97C69.2667 94.8667 66.8667 93 63.4 91.4C60.0667 89.6667 55.1333 87.8 48.6 85.8C32.8667 80.8667 21.8 74.9333 15.4 68C9 61.0667 5.8 52.3333 5.8 41.8C5.8 33.5333 8 26.2667 12.4 20C16.9333 13.7333 23.1333 8.93332 31 5.59999C39 2.13332 47.9333 0.399988 57.8 0.399988ZM162.816 3.99999V114.2H216.216L212.216 143H125.816V3.99999H162.816ZM317.336 3.99999L313.536 30.2H266.136V59.8H307.536V85.2H266.136V116.8H316.736V143H229.136V3.99999H317.336ZM422.023 3.99999L418.223 30.2H370.823V59.8H412.223V85.2H370.823V116.8H421.423V143H333.823V3.99999H422.023ZM486.111 3.99999C504.778 3.99999 519.244 7.93332 529.511 15.8C539.911 23.5333 545.111 34.9333 545.111 50C545.111 65.7333 540.111 77.7333 530.111 86C520.111 94.1333 506.644 98.2 489.711 98.2H475.511V143H438.511V3.99999H486.111ZM486.311 71.8C493.244 71.8 498.444 70.0667 501.911 66.6C505.511 63.1333 507.311 57.6667 507.311 50.2C507.311 36.7333 500.044 30 485.511 30H475.511V71.8H486.311Z" fill="white"/>
</svg>
